<?xml version="1.0" encoding="UTF-8" standalone="no"?>
<svg
        xmlns:dc="http://purl.org/dc/elements/1.1/"
        xmlns:cc="http://creativecommons.org/ns#"
        xmlns:rdf="http://www.w3.org/1999/02/22-rdf-syntax-ns#"
        xmlns:svg="http://www.w3.org/2000/svg"
        xmlns="http://www.w3.org/2000/svg"
        xmlns:sodipodi="http://sodipodi.sourceforge.net/DTD/sodipodi-0.dtd"
        xmlns:inkscape="http://www.inkscape.org/namespaces/inkscape"
        version="1.1"
        viewBox="0 0 470 470"
        enable-background="new 0 0 470 470"
        id="svg12"
        sodipodi:docname="advanced_search.svg"
        inkscape:version="0.92.3 (2405546, 2018-03-11)">
    <metadata
            id="metadata9">
        <rdf:RDF>
            <cc:Work
                    rdf:about="">
                <dc:format>image/svg+xml</dc:format>
                <dc:type
                        rdf:resource="http://purl.org/dc/dcmitype/StillImage" />
                <dc:title></dc:title>
            </cc:Work>
        </rdf:RDF>
    </metadata>
    <defs
            id="defs16" />
    <sodipodi:namedview
            pagecolor="#ffffff"
            bordercolor="#666666"
            borderopacity="1"
            objecttolerance="10"
            gridtolerance="10"
            guidetolerance="10"
            inkscape:pageopacity="0"
            inkscape:pageshadow="2"
            inkscape:window-width="1680"
            inkscape:window-height="987"
            id="namedview14"
            showgrid="false"
            inkscape:zoom="0.71011575"
            inkscape:cx="206.59655"
            inkscape:cy="259.75304"
            inkscape:window-x="-8"
            inkscape:window-y="127"
            inkscape:window-maximized="1"
            inkscape:current-layer="g10" />
    <g
            id="g10">
        <path
                d="M467.803,428.913L345.438,306.547c-2.929-2.929-7.678-2.929-10.606,0l-8.839,8.839l-17.796-17.796   C338.43,264.754,355,222.403,355,177.5c0-47.412-18.463-91.986-51.989-125.511S224.912,0,177.5,0S85.514,18.463,51.989,51.989   S0,130.088,0,177.5s18.463,91.986,51.989,125.511S130.088,355,177.5,355c44.903,0,87.254-16.57,120.091-46.803l17.796,17.796   l-8.839,8.839c-2.929,2.929-2.929,7.678,0,10.606l122.365,122.365c1.464,1.464,3.384,2.197,5.303,2.197s3.839-0.732,5.303-2.197   l28.284-28.284C470.732,436.59,470.732,431.841,467.803,428.913z M62.595,292.405C31.903,261.712,15,220.905,15,177.5   S31.903,93.288,62.595,62.595S134.095,15,177.5,15s84.212,16.903,114.905,47.595S340,134.095,340,177.5   s-16.903,84.212-47.595,114.905S220.905,340,177.5,340S93.288,323.097,62.595,292.405z M434.216,451.894L322.457,340.135   l17.678-17.678l111.759,111.759L434.216,451.894z"
                id="path2"
                style="fill:#ffffff" />
        <path
                d="m 177.99872,130.92357 c -26.50999,0 -48.07643,21.56645 -48.07643,48.07643 0,26.50998 21.56644,48.07643 48.07643,48.07643 26.50998,0 48.07643,-21.56645 48.07643,-48.07643 0,-26.50998 -21.56645,-48.07643 -48.07643,-48.07643 z m 0,76.92229 c -15.90625,0 -28.84586,-12.93961 -28.84586,-28.84586 0,-15.90625 12.93961,-28.84586 28.84586,-28.84586 15.90625,0 28.84586,12.93961 28.84586,28.84586 0,15.90625 -12.93961,28.84586 -28.84586,28.84586 z"
                id="path4"
                inkscape:connector-curvature="0"
                style="stroke-width:1.28203809;fill:#ffffff" />
        <path
                d="m 256.09151,141.70166 22.73438,-22.73438 c 3.32048,-3.31919 3.75637,-8.55119 1.03332,-12.37679 -8.12812,-11.41527 -18.03827,-21.324143 -29.45226,-29.450983 -3.82432,-2.724331 -9.05632,-2.285874 -12.37551,1.033323 l -22.73439,22.73438 c -2.76022,-1.32306 -5.58071,-2.49613 -8.45247,-3.51406 V 65.242193 c 0,-4.696105 -3.39228,-8.705039 -8.023,-9.481954 -6.94993,-1.167936 -13.95627,-1.758956 -20.82286,-1.758956 -6.8666,0 -13.87294,0.59102 -20.82287,1.758956 -4.63072,0.776915 -8.02299,4.785849 -8.02299,9.481954 V 97.39315 c -2.87177,1.01793 -5.69225,2.191 -8.45248,3.51406 L 117.966,78.17283 c -3.3192,-3.319197 -8.54991,-3.756372 -12.37551,-1.034605 -11.41527,8.128122 -21.32414,18.036995 -29.45227,29.452265 -2.72304,3.82432 -2.28587,9.05632 1.03461,12.37551 l 22.734381,22.73438 c -1.323061,2.76023 -2.496131,5.58071 -3.514071,8.45248 H 64.24091 c -4.696105,0 -8.705039,3.39227 -9.481954,8.02299 C 53.59102,165.12707 53,172.1334 53,179 c 0,6.86531 0.59102,13.87165 1.758956,20.82286 0.776915,4.63073 4.785849,8.023 9.481954,8.023 h 32.15223 c 1.01794,2.87176 2.18973,5.69225 3.514071,8.45248 L 77.17283,239.03272 c -3.32048,3.31919 -3.75637,8.55119 -1.03332,12.37679 8.12812,11.41399 18.03699,21.32286 29.45098,29.45098 3.8256,2.72433 9.05631,2.28588 12.37679,-1.03332 l 22.73438,-22.73438 c 2.75895,1.32306 5.58072,2.49613 8.45248,3.51407 v 32.15223 c 0,4.69611 3.39227,8.70504 8.023,9.48195 C 164.12707,303.4077 171.1334,304 178,304 c 6.8666,0 13.87293,-0.59102 20.82286,-1.75896 4.63073,-0.77691 8.023,-4.78584 8.023,-9.48195 v -32.15223 c 2.87176,-1.01794 5.69225,-2.18973 8.45248,-3.51407 l 22.73438,22.73438 c 3.31919,3.32048 8.55119,3.75637 12.37551,1.03332 11.41527,-8.12812 21.32414,-18.03699 29.45226,-29.45226 2.72305,-3.82432 2.28588,-9.05632 -1.03332,-12.37551 l -22.73438,-22.73438 c 1.32306,-2.75895 2.49613,-5.58072 3.51407,-8.45248 h 32.15223 c 4.69611,0 8.70504,-3.39227 9.48195,-8.023 C 302.4077,192.87293 303,185.8666 303,179 c 0,-6.8666 -0.59102,-13.87293 -1.75896,-20.82286 -0.77691,-4.63073 -4.78584,-8.023 -9.48195,-8.023 h -32.15223 c -1.02051,-2.87176 -2.19229,-5.69225 -3.51535,-8.45248 z M 283.76686,179 c 0,3.17433 -0.14999,6.3884 -0.44871,9.61529 h -30.82148 c -4.38713,0 -8.21914,2.9692 -9.31144,7.21915 -1.5564,6.04738 -3.98073,11.88065 -7.20506,17.337 -2.23202,3.77817 -1.62434,8.58838 1.47948,11.69091 l 21.79849,21.79849 c -4.11406,4.93842 -8.66017,9.48452 -13.59858,13.59858 l -21.79849,-21.79849 c -3.10253,-3.10253 -7.91146,-3.7115 -11.68963,-1.47947 -5.45891,3.2256 -11.29347,5.64994 -17.33828,7.20633 -4.24867,1.09358 -7.21916,4.92431 -7.21916,9.31145 v 30.82147 c -6.45249,0.59743 -12.77807,0.59743 -19.23057,0 v -30.82147 c 0,-4.38714 -2.9692,-8.21915 -7.21915,-9.31145 -6.04738,-1.55639 -11.88065,-3.98073 -17.33701,-7.20505 -3.77944,-2.23203 -8.58837,-1.62434 -11.6909,1.47947 l -21.7985,21.79721 c -4.93841,-4.11406 -9.48323,-8.65888 -13.59729,-13.59729 l 21.79721,-21.7985 c 3.10253,-3.10253 3.7115,-7.91146 1.47947,-11.68962 -3.22561,-5.45892 -5.64994,-11.29348 -7.20633,-17.33829 -1.09358,-4.24867 -4.92431,-7.21915 -9.31145,-7.21915 H 72.679285 c -0.298715,-3.22689 -0.448713,-6.44096 -0.448713,-9.61529 0,-3.17432 0.149998,-6.38839 0.448713,-9.61528 h 30.820195 c 4.38714,0 8.21787,-2.9692 9.31145,-7.21788 1.55639,-6.04609 3.98072,-11.87936 7.20633,-17.33828 2.23203,-3.77817 1.62306,-8.58709 -1.47947,-11.68963 L 96.74058,111.34172 c 4.11406,-4.93841 8.65888,-9.48323 13.59729,-13.5973 l 21.7985,21.79722 c 3.10253,3.10253 7.91274,3.7115 11.68962,1.47947 5.45892,-3.22561 11.29348,-5.64994 17.33829,-7.20634 4.24867,-1.09358 7.21787,-4.92431 7.21787,-9.31144 V 73.680568 c 6.4525,-0.597429 12.77807,-0.597429 19.23057,0 v 30.821482 c 0,4.38713 2.9692,8.21914 7.21916,9.31144 6.04481,1.55511 11.87936,3.97945 17.33828,7.20634 3.77689,2.23074 8.58709,1.62306 11.68963,-1.47948 l 21.79849,-21.79849 c 4.93841,4.11406 9.48324,8.66017 13.5973,13.59858 l -21.79722,21.79849 c -3.10253,3.10253 -3.7115,7.91274 -1.47947,11.69091 3.22433,5.45763 5.64866,11.29091 7.20506,17.337 1.09358,4.24867 4.92431,7.21916 9.31144,7.21916 h 30.82148 c 0.3,3.2256 0.44999,6.43967 0.44999,9.614 z"
                id="path6"
                inkscape:connector-curvature="0"
                style="stroke-width:1.28203809;fill:#ffffff" />
    </g>
</svg>
