<?xml version="1.0"?>
<svg xmlns="http://www.w3.org/2000/svg" viewBox="5 5 40 40">
    <style>
        .colorFill { fill:#fff }
    </style>
    <path  class="colorFill" style="line-height:normal;text-indent:0;text-align:start;text-decoration-line:none;text-decoration-style:solid;text-decoration-color:#000;text-transform:none;block-progression:tb;isolation:auto;mix-blend-mode:normal" d="M 6 10 L 6 12 L 9 12 L 9 10 L 6 10 z M 11 10 L 11 12 L 14 12 L 14 10 L 11 10 z M 16 10 L 16 12 L 19 12 L 19 10 L 16 10 z M 21 10 L 21 12 L 24 12 L 24 10 L 21 10 z M 26 10 L 26 12 L 29 12 L 29 10 L 26 10 z M 31 10 L 31 12 L 34 12 L 34 10 L 31 10 z M 36 10 L 36 12 L 39 12 L 39 10 L 36 10 z M 41 10 L 41 12 L 44 12 L 44 10 L 41 10 z M 6 17 L 6 20 L 17 20 L 17 17 L 6 17 z M 19 17 L 19 20 L 31 20 L 31 17 L 19 17 z M 33 17 L 33 20 L 44 20 L 44 17 L 33 17 z M 6 25 L 6 29 L 24 29 L 24 25 L 6 25 z M 26 25 L 26 29 L 44 29 L 44 25 L 26 25 z M 6 34 L 6 40 L 44 40 L 44 34 L 6 34 z"/>
</svg>
