<svg width="512" height="512" xmlns="http://www.w3.org/2000/svg">
 <style>
  .colorFill { fill:#fff }
 </style>
 <g>
  <title>background</title>
  <rect fill="none" id="canvas_background" height="514" width="514" y="-1" x="-1"/>
 </g>
 <g class="colorFill">
  <title>Layer 1</title>
  <path stroke="null" id="svg_1" d="m362.19739,309.13032l-79.23149,0l41.69878,98.80743c2.9046,6.85003 -0.41452,14.53053 -7.05349,17.43678l-36.72011,15.56806c-6.84511,2.90625 -14.52149,-0.41487 -17.42609,-7.05783l-39.62396,-93.82539l-64.72718,64.76434c-8.62566,8.62938 -22.61388,1.97698 -22.61388,-9.34069l0,-312.18797c0,-11.91563 14.8785,-17.72449 22.61314,-9.34069l212.42022,212.55008c8.56815,8.12224 2.24585,22.62589 -9.33594,22.62589z"/>
  <polyline stroke-linecap="round" id="svg_2" points="215,165.453125 215,165.453125 " stroke-opacity="null" stroke-width="null" stroke="null" fill="none"/>
  <path stroke="null" d="m224,195.45313c0,0 0,0 0,-3c0,-5 0,-8 0,-14c0,-2 -2,-7 -2,-8c0,-3 -1.48625,-3.82375 -2,-6c-0.22975,-0.97325 -1,-1 -2,-1c-1,0 -2,0 -3,0c-2,0 -4.09789,-0.17557 -6,1c-4.25325,2.62866 -5.41885,4.41885 -7,6c-1.58115,1.58115 -3,4 -3,7c0,4 0,7 0,8c0,3 0,4 0,5c0,4 0,7 0,11l0,2l0,-1l2,-2" id="svg_3" stroke-opacity="null" stroke-width="null" fill="none"/>
 </g>
</svg>
