<svg width="240" height="240" xmlns="http://www.w3.org/2000/svg">
 <style>
  .colorFill { fill:#fff }
 </style>
 <g>
  <title>background</title>
  <rect fill="none" id="canvas_background" height="242" width="242" y="-1" x="-1"/>
 </g>
 <g class="colorFill">
  <title>Layer 1</title>
  <path stroke-width="0" stroke="null" id="svg_1" d="m187.73827,49.71761c-0.07659,-0.0855 -0.14962,-0.17366 -0.23155,-0.25559c-0.17633,-0.17633 -0.36157,-0.33931 -0.55215,-0.4916c-17.49529,-16.50235 -41.06251,-26.63442 -66.95323,-26.63442c-53.85113,0 -97.66284,43.81272 -97.66284,97.66757c0.00178,25.87922 10.12492,49.43581 26.61386,66.92848c0.15763,0.19949 0.32506,0.39274 0.50941,0.5762c0.09529,0.0944 0.19593,0.17811 0.29478,0.26628c17.77315,18.4162 42.69404,29.88947 70.24568,29.88947c53.84935,0 97.65928,-43.81005 97.65928,-97.66133c-0.00089,-27.5722 -11.48749,-52.50919 -29.92323,-70.28506zm-67.73693,-14.02299c20.07172,0 38.5226,7.05602 53.01577,18.81161l-118.50936,118.50969c-11.75377,-14.49232 -18.80889,-32.94326 -18.81067,-53.01325c0,-46.48712 37.81905,-84.30805 84.30425,-84.30805zm0,168.61076c-21.6133,0 -41.35106,-8.18082 -56.28774,-21.60357l118.98937,-118.98882c13.42093,14.93672 21.59905,34.67542 21.59905,56.28968c0,46.48445 -37.81727,84.30271 -84.30069,84.30271z"/>
  <g id="svg_2"/>
  <g id="svg_3"/>
  <g id="svg_4"/>
  <g id="svg_5"/>
  <g id="svg_6"/>
  <g id="svg_7"/>
  <g id="svg_8"/>
  <g id="svg_9"/>
  <g id="svg_10"/>
  <g id="svg_11"/>
  <g id="svg_12"/>
  <g id="svg_13"/>
  <g id="svg_14"/>
  <g id="svg_15"/>
  <g id="svg_16"/>
 </g>
</svg>
