<?xml version="1.0" encoding="utf-8"?>
<!-- Svg Vector Icons : http://www.onlinewebfonts.com/icon -->
<!DOCTYPE svg PUBLIC "-//W3C//DTD SVG 1.1//EN" "http://www.w3.org/Graphics/SVG/1.1/DTD/svg11.dtd">
<svg version="1.1" xmlns="http://www.w3.org/2000/svg" xmlns:xlink="http://www.w3.org/1999/xlink" x="0px" y="0px" viewBox="0 0 1000 1000" enable-background="new 0 0 1000 1000" xml:space="preserve">
<style>
    .colorFill { fill:#fff }
</style>
<metadata> Svg Vector Icons : http://www.onlinewebfonts.com/icon </metadata>
<g><g transform="translate(0.000000,511.000000) scale(0.100000,-0.100000)"><path class="colorFill" d="M1683.6,4989.9c-48.1-15.2-134.2-58.2-189.8-98.7C1319.1,4769.7,200.3,3623,149.7,3511.7c-68.3-144.3-65.8-372.1,5.1-518.9c40.5-81,506.2-564.4,1665.5-1721.2L3427.6-335.7L2263.2-1500.1C1174.8-2588.5,1098.9-2672,1098.9-2753c0-81,43-129.1,486-574.6c445.5-445.5,496.1-488.5,574.6-488.5c83.5,0,167.1,78.5,1255.5,1164.4l1164.3,1164.3l1594.6-1594.6c1149.2-1149.2,1627.5-1612.4,1708.6-1652.9c146.8-70.9,374.6-73.4,518.9-5.1c139.2,65.8,1328.9,1245.3,1414.9,1402.2c91.1,167.1,106.3,296.2,53.1,473.3c-40.5,149.4-48.1,156.9-1660.4,1769.3l-1617.4,1620l718.9,718.9l716.3,716.3l435.4,855.5c475.9,936.5,493.6,989.7,372.1,1131.4c-53.1,60.7-78.5,70.9-197.4,70.9c-126.6,0-182.3-27.9-918.8-430.3l-784.7-430.3l-746.7-739.1l-746.7-741.6L3832.6,3283.9c-1146.6,1146.6-1640.2,1625-1718.7,1663C1984.8,5010.1,1807.6,5027.8,1683.6,4989.9z M5710.7,821c3338.6-3336.1,3791.7-3799.3,3791.7-3865.1c0-63.3-91.1-164.5-640.4-713.8c-723.9-726.5-701.1-711.3-893.5-534.1l-113.9,103.8l146.8,149.4l144.3,146.8L8009-3752.8l-136.7,139.2l-146.8-144.3l-146.8-146.8l-144.3,146.8l-146.8,144.3l286,286l283.5,283.5l-144.3,146.8L7566-2753l-283.5-283.5l-286-283.5l-139.2,136.7l-139.2,136.7l144.3,146.8l146.8,146.8l-146.8,144.3l-144.3,146.8l-146.8-146.8L6424.5-2753l-136.7,139.2l-136.7,139.2l283.5,286l283.5,283.5l-144.3,146.8L6427-1614l-283.5-283.5l-286-286l-144.3,146.8l-146.8,144.3l146.8,146.8l144.3,146.8l-139.2,136.7l-139.2,139.2l-144.3-146.8L5288-1614l-144.3,144.3l-146.8,146.8l283.5,283.5l286,286l-146.8,144.3l-144.3,146.8l-286-286l-283.5-283.5l-139.2,139.2l-136.7,139.2l131.6,134.1c73.4,73.4,131.6,144.3,131.6,157c0,32.9-232.9,265.8-263.2,265.8c-15.2,0-86.1-58.2-159.5-131.6l-134.2-131.6l-139.2,136.7l-139.2,139.2l283.5,283.5l286,286l-146.8,144.3l-144.3,146.8l-286-286l-283.5-283.5L3420,251.5l-144.3,146.8L3420,542.6l144.3,146.8l-136.7,139.2l-136.7,139.2l-146.8-144.3l-146.8-146.8L2853,823.5l-146.8,144.3l286,286l283.5,283.5l-144.3,146.8l-146.8,144.3l-283.5-283.5l-286-283.5l-139.2,136.7l-139.2,136.7l144.3,146.8l146.8,146.8L2281,1972.7l-144.3,146.8l-146.8-146.8l-146.8-144.3l-134.2,136.7l-136.7,139.2l273.4,293.6l273.4,293.6l-136.7,139.2l-136.7,136.7L1562.1,2684l-286-286l-144.3,146.8L985,2689l146.8,146.8l144.3,146.8l-139.2,136.7L997.7,3256l-146.8-144.3l-149.4-146.8l-103.8,113.9c-177.2,192.4-192.4,169.6,534.1,893.5c549.3,549.3,650.5,640.4,713.8,640.4C1911.4,4612.7,2374.6,4159.6,5710.7,821z M8072.3,2939.6l-245.5-486L7596.4,2689c-129.1,126.6-220.2,237.9-207.6,245.5c15.2,5,225.3,121.5,468.3,258.2c243,134.2,445.5,245.5,450.5,240.5C8312.8,3430.7,8206.4,3207.9,8072.3,2939.6z M7312.9,2385.3l278.4-278.4l-645.4-645.4L6300.5,816L6017,1099.4l-286,286l637.9,637.9c351.8,351.8,645.4,640.4,653,640.4S7161.1,2537.2,7312.9,2385.3z M3511.1-1973.4L2731.5-2753L2448-2469.5l-286,286l777.1,777.1l779.6,779.6l283.5-283.5l286-286L3511.1-1973.4z M2296.1-3188.4l-146.8-146.8l-283.5,283.5l-286,286l144.3,144.3l146.8,146.8l283.5-283.5l286-286L2296.1-3188.4z"/></g></g>
</svg>
