<?xml version="1.0" encoding="utf-8"?>
<!-- Svg Vector Icons : http://www.onlinewebfonts.com/icon -->
<!DOCTYPE svg PUBLIC "-//W3C//DTD SVG 1.1//EN" "http://www.w3.org/Graphics/SVG/1.1/DTD/svg11.dtd">
<svg version="1.1" xmlns="http://www.w3.org/2000/svg" xmlns:xlink="http://www.w3.org/1999/xlink" x="0px" y="0px" viewBox="0 0 1000 1000" enable-background="new 0 0 1000 1000" xml:space="preserve">
<style>
  .colorFill { fill:#fff }
</style>
<metadata> Svg Vector Icons : http://www.onlinewebfonts.com/icon </metadata>
<g><g transform="translate(0.000000,512.000000) scale(0.100000,-0.100000)"><path class="colorFill" d="M132.6,4985.5c-28.8-30.7-32.6-99.7-32.6-583c0-504.4,1.9-548.5,34.5-577.3c30.7-28.8,86.3-32.6,383.6-32.6c418.1,0,406.6-7.7,406.6,243.6v159.2h159.2c251.2,0,243.6-11.5,243.6,410.4c0,314.5-3.8,354.8-34.5,381.6c-30.7,28.8-99.7,32.6-583,32.6C205.5,5020,161.4,5018.1,132.6,4985.5z"/><path class="colorFill" d="M2182.7,4989.3c-24.9-24.9-30.7-86.3-30.7-381.6c0-343.3,1.9-352.9,42.2-381.6c36.4-26.9,143.8-30.7,772.9-30.7s736.4,3.8,772.9,30.7c40.3,28.8,42.2,38.4,42.2,381.6c0,295.3-5.8,356.7-30.7,381.6c-24.9,26.9-124.7,30.7-784.4,30.7C2307.4,5020,2207.7,5016.2,2182.7,4989.3z"/><path class="colorFill" d="M4641.4,4998.9c-30.7-17.3-34.5-57.5-34.5-381.6c0-352.9,1.9-362.5,42.2-391.2c36.4-26.9,143.8-30.7,772.9-30.7c629,0,736.4,3.8,772.9,30.7c40.3,28.8,42.2,38.4,42.2,381.6c0,295.3-5.8,356.7-30.7,381.6c-24.9,26.9-122.8,30.7-780.5,30.7C4950.1,5020,4662.5,5012.3,4641.4,4998.9z"/><path class="colorFill" d="M7092.3,4989.3c-24.9-24.9-30.7-86.3-30.7-381.6c0-423.8-7.7-412.3,243.6-412.3h159.2v-168.8c0-241.6-13.4-234,418.1-234c337.5,0,347.1,1.9,375.9,42.2c46,63.3,46,1079.7,0,1143c-28.8,42.2-32.6,42.2-583,42.2C7197.8,5020,7117.3,5016.2,7092.3,4989.3z"/><path class="colorFill" d="M130.7,2937.3c-26.9-24.9-30.7-124.7-30.7-784.4s3.8-759.5,30.7-784.4c24.9-24.9,86.3-30.7,381.6-30.7c343.3,0,352.9,1.9,381.6,42.2c26.9,36.4,30.7,143.8,30.7,772.9s-3.8,736.4-30.7,772.9c-28.8,40.3-38.4,42.2-381.6,42.2C217,2967.9,155.6,2962.2,130.7,2937.3z"/><path class="colorFill" d="M7495.1,2937.3c-26.8-24.9-30.7-122.7-30.7-782.5c0-705.8,1.9-755.6,34.5-784.4c30.7-28.8,86.3-32.6,383.6-32.6c337.5,0,347.1,1.9,375.9,42.2c26.8,36.4,30.7,143.8,30.7,784.4c0,692.3-1.9,742.2-34.5,771C8202.7,2983.3,7541.1,2983.3,7495.1,2937.3z"/><path class="colorFill" d="M119.2,476.7C107.7,451.8,100,169.9,100-309.6c0-654,3.8-751.8,30.7-776.7c24.9-24.9,86.3-30.7,381.6-30.7c343.3,0,352.9,1.9,381.6,42.2c46,65.2,46,1480.5,0,1545.7c-28.8,40.3-38.4,42.2-391.2,42.2C163.3,513.1,138.4,511.2,119.2,476.7z"/><path class="colorFill" d="M5032.6,66.3C5046,4.9,6841.1-4780,6850.7-4780c5.8,0,34.5,71,63.3,155.3c122.8,358.6,362.5,826.6,583,1137.3l105.5,151.5l521.6-521.6c322.2-322.2,533.1-519.7,558.1-519.7c49.9,0,815.1,763.3,815.1,815.1c0,24.9-182.2,220.5-519.7,558.1l-521.6,521.7l151.5,105.5c310.7,220.5,778.6,460.3,1137.3,583c84.4,28.8,155.3,57.5,155.3,63.3c0,9.6-4784.9,1804.6-4846.3,1818.1C5036.4,91.2,5028.8,83.6,5032.6,66.3z"/><path class="colorFill" d="M130.7-1972.3c-26.9-24.9-30.7-105.5-30.7-583c0-550.4,0-554.3,42.2-583c63.3-46,1079.7-46,1143,0c40.3,28.8,42.2,38.3,42.2,379.7c0,427.7,7.7,414.2-235.9,414.2H924.7v159.2c0,251.3,11.5,243.6-412.3,243.6C217-1941.6,155.6-1947.4,130.7-1972.3z"/><path class="colorFill" d="M2182.7-2375.1c-24.9-25-30.7-86.3-30.7-379.7c0-314.5,3.8-354.8,34.5-381.6c32.6-28.8,113.2-32.6,772.9-32.6c636.7,0,744.1,3.8,780.5,30.7c40.3,28.8,42.2,38.3,42.2,379.7c0,314.5-3.8,354.8-34.5,381.6c-32.6,28.8-115.1,32.6-786.3,32.6C2305.5-2344.4,2207.7-2348.2,2182.7-2375.1z"/></g></g>
</svg>
